# xmcd
#
# Track frame offsets:
# 150
# 11360
# 21437
# 31677
# 41247
# 56175
# 68357
# 79145
# 90570
# 102637
# 115927
# 126537
# 140332
# 154667
# 171867
# 182820
#
# Disc length: 2615 seconds
#
#
# Revision: 0
# Processed by: cddbd v1.5.2PL0 Copyright (c) Steve Scherf et al.
# Submitted via: FreeRIP 2.945 
#
DISCID=d60a3510
DTITLE=Willie Nelson - Legends - Willie Nelson
DYEAR=2004
DGENRE=Country
TTITLE0=Phases and Stages (Circles, Cycles and Scenes)
TTITLE1=Mr. Record Man
TTITLE2=I Gotta Get Drunk
TTITLE3=Within Your Crowd
TTITLE4=Little Things
TTITLE5=Born To Lose (Frankie Brown)
TTITLE6=Suffer In Silence
TTITLE7=Crazy Arms
TTITLE8=Funny How Time Slips Away
TTITLE9=My Own Peculiar Way
TTITLE10=Heartaches By The Number
TTITLE11=It Will Come To Pass
TTITLE12=I Walk Alone
TTITLE13=Me and Paul
TTITLE14=Night Life
TTITLE15=Fire And Rain
EXTD=
EXTT0=
EXTT1=
EXTT2=
EXTT3=
EXTT4=
EXTT5=
EXTT6=
EXTT7=
EXTT8=
EXTT9=
EXTT10=
EXTT11=
EXTT12=
EXTT13=
EXTT14=
EXTT15=
PLAYORDER=
